<svg xmlns="http://www.w3.org/2000/svg" viewBox="0 0 120 120"><defs><style>.a{fill:#e94c2d;}</style></defs><path class="a" d="M106.35,32.86c-1.11-4.18-3.88-14.2-3.88-14.2s-1.39,1.71-8.92,5.39a155.58,155.58,0,0,1-20.07,8s1.93,12.8,3.3,17.13l3.89-.57,1.46,6.84a200,200,0,0,1,25.81-2.9S108.71,41.79,106.35,32.86ZM96.76,49.35l-2.58-1.16-2-10.45-2.47.47-.36-1.88,2.53-.48-.68-3.54c-.24-1.22-.71-1.75-1.39-1.62a1.77,1.77,0,0,0-1.07.69L87.6,30.17a3.26,3.26,0,0,1,1.89-1.79,2.82,2.82,0,0,1,3.08,1.12,8,8,0,0,1,1.08,3.31L94,35.43,96.35,35l.34,1.74-2.36.46L96.24,47A21.13,21.13,0,0,0,100,44.63c1.36-1.19,2-2.5,1.71-3.77-.2-1.06-.79-1.48-1.72-1.3-.33.07-.74.45-1.29,1.14l-1.41-1.28a2.74,2.74,0,0,1,2.52-2.15,2.84,2.84,0,0,1,2.57.67,4,4,0,0,1,1.35,2.37C104.37,43.7,102.06,46.73,96.76,49.35Z"/><path class="a" d="M81,55.62l-1.46-5.89L72.74,51,74,56.9S80.19,55.73,81,55.62Z"/><polygon class="a" points="73.43 39.45 72.29 32.42 67.48 34.25 68.74 40.72 73.43 39.45"/><polygon class="a" points="72.07 49.26 70.33 42.34 65.73 43.4 67.48 50.38 72.07 49.26"/><path class="a" d="M63.51,36.19s-3.29,1.87-4.73,2.93c.37,1.55.89,5,.89,5L65,41.91Z"/><path class="a" d="M66.75,56.61s-4.71,1.2-5.4,1.59l-.85-4.43L65.56,52Z"/><path class="a" d="M61.22,51.21a37.48,37.48,0,0,0-4.81,2.21L54.53,49a52.55,52.55,0,0,1,4.8-2.37Z"/><path class="a" d="M48,49.8A21,21,0,0,1,51,46c1,1.47,2,3.1,2,3.1s-2.47,2.51-3,3.27Z"/><path class="a" d="M59.08,60.71l-1-3.91a14.43,14.43,0,0,0-3.5,1.82l1,3.26S56.49,61.49,59.08,60.71Z"/><path class="a" d="M52.71,57.06l-1.57-2.92S48.78,56,48.42,56.86l1.21,2.34A23.09,23.09,0,0,1,52.71,57.06Z"/><polygon class="a" points="50.63 63.83 49.75 62.12 47.26 63.97 47.72 65.2 50.63 63.83"/><path class="a" d="M46.34,59.74,45.14,58a11.83,11.83,0,0,0-1.66,2.51l1.25,1.24Z"/><path class="a" d="M44.42,55.51l1,.82s1.64-2.48,2.12-3L46.41,52.1S45.13,54.12,44.42,55.51Z"/><polygon class="a" points="44.21 65.75 43.02 64.43 41.69 66.58 42.66 67.59 44.21 65.75"/><polygon class="a" points="40.18 70.41 39.57 69.93 39.35 70.5 39.82 70.88 40.18 70.41"/><path class="a" d="M62.81,5.9C60.81,4.14,56,0,56,0s-.12,1.34-2.7,5.8A94.7,94.7,0,0,1,45.8,16.74s5.37,5.85,7.55,7.58l1.78-1.61,3.08,3A122.75,122.75,0,0,1,70.36,15.37,43.07,43.07,0,0,0,62.81,5.9Zm-2.21,13-3.71-5.37-1.27.88-.67-1,1.3-.91L55,10.74c-.44-.63-.84-.8-1.19-.56a1.08,1.08,0,0,0-.42.65l-1-.39A1.93,1.93,0,0,1,53.05,9a1.73,1.73,0,0,1,2-.15,5.09,5.09,0,0,1,1.42,1.59l.87,1.38L58.53,11l.62.89-1.21.84,3.53,5A12.93,12.93,0,0,0,63,15.46a2.47,2.47,0,0,0,0-2.54.82.82,0,0,0-1.28-.29,1.74,1.74,0,0,0-.45.95l-1.1-.36A1.65,1.65,0,0,1,61,11.39a1.75,1.75,0,0,1,1.61-.27,2.48,2.48,0,0,1,1.35,1c1.21,1.73.67,4-1.65,6.8Z"/><path class="a" d="M57.71,26.16,55,23.66l-3,3,2.66,2.58S57.33,26.49,57.71,26.16Z"/><polygon class="a" points="48.31 20.53 45.32 17.34 43.5 19.92 46.36 22.78 48.31 20.53"/><polygon class="a" points="50.98 25.98 47.72 23.06 45.74 25.17 49.03 28.13 50.98 25.98"/><path class="a" d="M42.15,22.26s-1,2.08-1.41,3.11c.72.67,2.18,2.26,2.18,2.26l1.94-3Z"/><path class="a" d="M50.79,31.55s-2,2.22-2.2,2.66l-2-2,2-2.65Z"/><path class="a" d="M46.12,30.69a23.36,23.36,0,0,0-1.69,2.78L42,31.87S43,30,43.6,29Z"/><path class="a" d="M38.89,34.52a13.25,13.25,0,0,1,.26-3c1,.42,2.07.9,2.07.9s-.39,2.13-.42,2.71Z"/><path class="a" d="M48.29,36.26,46.46,34.6a8.75,8.75,0,0,0-1.16,2.13l1.61,1.33S47.24,37.55,48.29,36.26Z"/><path class="a" d="M43.8,36.58,42,35.64A8.31,8.31,0,0,0,41.54,38l1.43.78A14,14,0,0,1,43.8,36.58Z"/><polygon class="a" points="45.06 40.74 44.02 40.17 43.39 41.97 44.05 42.44 45.06 40.74"/><path class="a" d="M41.47,40.13l-1.19-.46a7.48,7.48,0,0,0,0,1.85l1.06.2Z"/><path class="a" d="M39.05,38.63l.81.06s0-1.82,0-2.25l-1-.22S38.93,37.69,39.05,38.63Z"/><polygon class="a" points="42.45 43.92 41.39 43.66 41.45 45.21 42.29 45.39 42.45 43.92"/><polygon class="a" points="42 47.67 41.52 47.64 41.6 48.01 41.97 48.03 42 47.67"/><path class="a" d="M59.07,96.44c0,.65,0,1.3-.08,1.94a23.32,23.32,0,0,1-2,7.83A24.12,24.12,0,0,1,55.44,109,23.56,23.56,0,1,1,25,75.34a19.66,19.66,0,0,0-1.69,2.54c-.05.07-.08.14-.13.21v0a2.25,2.25,0,0,1-.12.21c-.05.08-.08.16-.13.26a24.37,24.37,0,0,0-2.25,8.3c-.07.81-.12,1.65-.12,2.49,0,10.75,6.32,19.48,14.12,19.48h.09l.73,0a12.66,12.66,0,0,0,3.28-.43,12.44,12.44,0,0,0,9.16-12c0-.12,0-.22,0-.34a12.34,12.34,0,0,0-3.83-8.63,20,20,0,0,1,4.67.64A20.57,20.57,0,0,1,56.51,92l.11.09h0a.35.35,0,0,1,.1.08c.32.26.62.53.93.81.28-.48.59-.94.92-1.4A25.14,25.14,0,0,1,59,94.35C59,95.05,59.07,95.74,59.07,96.44Z"/><path class="a" d="M26.49,92.7c7.9-14.6,24.7-11.43,24.7-11.43l-.41-10.92c-8.42-1.13-13.26,3.22-13.26,3.22L39.9,78C27.89,82.6,26.49,92.7,26.49,92.7Z"/><path class="a" d="M30.36,89.05A29.93,29.93,0,0,1,44,86.13c9.08.13,13.47,5.23,13.47,5.23l6.39-9.65a18.56,18.56,0,0,0-11.59-4.26l.18,5.11C37.07,80.28,30.36,89.05,30.36,89.05Z"/><path class="a" d="M23.75,97c1.42-8.2,5.08-13.11,8.42-16a20.06,20.06,0,0,1,6-3.67L33.9,69.49C16.08,80.26,23.75,97,23.75,97Z"/><path class="a" d="M31.15,101.7a2.32,2.32,0,0,0,.61-.52.26.26,0,0,0,0-.35H30.67a.16.16,0,0,0-.11,0,.44.44,0,0,0,0,.3Z"/><path class="a" d="M31.93,102.43c0-.24-.05-.55-.06-.77a3.85,3.85,0,0,0-.34.3Z"/><path class="a" d="M30.49,101.66c0,.22,0,.53-.06.77l.39-.47A3.91,3.91,0,0,0,30.49,101.66Z"/><path class="a" d="M35,93a.19.19,0,0,0-.16-.11h0a12.93,12.93,0,0,0-1.36.82l0,0,0,.06a.66.66,0,0,0,.22.15c.18-.11,1-.62,1.25-.8C35,93.05,35.06,93,35,93Z"/><path class="a" d="M35.66,92.5a.11.11,0,0,0-.1,0h0s0,.12-.05.23a4.45,4.45,0,0,0-.11.55.74.74,0,0,0,.32-.5A.33.33,0,0,0,35.66,92.5Z"/><path class="a" d="M39.62,95a3.69,3.69,0,0,0-.86-2.68,3.39,3.39,0,0,0-.8,0c-.7,0-1.62,0-1.93,0a.89.89,0,0,0,.87.91c.13,0,.22,0,.23.14l0,.11-.12,0h-.28c-.54,0-.73-.19-.83-.33a5.59,5.59,0,0,1-.74.72c0,.2,0,.9,0,1.21a1.29,1.29,0,0,0,.54.07H36c0-.23,0-.83,0-1.06V94h.1c.37,0,1,.76,1.12,1a5.15,5.15,0,0,1,.26,1.61v.06C39.13,96.45,39.42,96.1,39.62,95Z"/><path class="a" d="M34,94.8a.85.85,0,0,0,.68.28c0-.37.07-1.09.08-1.46l-.8.67A.62.62,0,0,0,34,94.8Z"/><path class="a" d="M33.44,95.41h0A7.72,7.72,0,0,0,36,96.74V95.62a2.71,2.71,0,0,0-.43,0H35A2.25,2.25,0,0,1,33.59,95l0,0v0c0-.85-.34-.93-.55-1H33a.5.5,0,0,0-.45.3.1.1,0,0,0,0,.07s.1.08.33.08.34.23.36.46h0A.72.72,0,0,0,33.44,95.41Z"/><path class="a" d="M31.59,95.33a.21.21,0,0,0,.11.25,2.55,2.55,0,0,0,.3-.32l.19.11a.46.46,0,0,0,0,.31.23.23,0,0,0,.14.11l.09,0s0,0,.07-.07a.22.22,0,0,1,.22-.17h.07l0,0a.41.41,0,0,1,.05.09c.08.13.1.15.17.16a.19.19,0,0,0,0-.1.72.72,0,0,0-.12-.59c-.23-.3-.36-.45-.66-.46A1,1,0,0,0,31.59,95.33Z"/><path class="a" d="M36.37,94.83V97a2.19,2.19,0,0,0,.68-.33C37,95.6,36.72,94.94,36.37,94.83Z"/><path class="a" d="M35.69,97.28a10.66,10.66,0,0,1-1.2-.69,4.31,4.31,0,0,0,.76,1.13A1.74,1.74,0,0,0,35.69,97.28Z"/><path class="a" d="M36,97.76a.33.33,0,0,0-.1.23.3.3,0,0,0,0,.14,13,13,0,0,0,1.94-.73,1.09,1.09,0,0,0-.41-.33,4.07,4.07,0,0,1-1.2.59Z"/><path class="a" d="M43.7,102.79c.06-.17.18-.52.09-.65s0,0-.15,0h-.57a12.55,12.55,0,0,1-2.23-.14,8.46,8.46,0,0,0-1.67-.26.84.84,0,0,0-.3,0,1.66,1.66,0,0,0-.59.69v.08l-.08,0h-.06a.21.21,0,0,1-.15-.07c-.07-.1-.05-.26,0-.54l.07-.18a7.09,7.09,0,0,0,.44-1.69c-.47.22-1.46.78-1.72.92a8.79,8.79,0,0,0,.47,1.16c.4.83.62,1,.67,1h0c.17,0,.7-.09,1.32-.19a24.46,24.46,0,0,1,2.92-.37,1.21,1.21,0,0,1,.38,0h0l0,0,.06.09a2.14,2.14,0,0,1,.57,1.06,3.63,3.63,0,0,1,.05.63.38.38,0,0,0,.26-.2,4.5,4.5,0,0,0,0-.82,2,2,0,0,1,0-.47A.62.62,0,0,1,43.7,102.79Z"/><path class="a" d="M31.47,96.89c-.08,0-.2.09-.2.42,0,0,0,.09.06.09s.06,0,.11-.17l0-.07h2.72a1.82,1.82,0,0,1-.16-.31l-2.56,0Z"/><path class="a" d="M32.49,92.07c0,.73,1.4.41,1.4.41s0,0,0,.13a.36.36,0,0,0-.34.23c0,.12.07.2.36.2s.91-.6,1-.65,0-.16,0-.23c.37-.07.08-.25,0-.33s.18-.12.26-.13.1.09.39.2.25-.17.22-.19.1-.1,0-.16-.22-.1-.24-.22c.59,0,.41-.11.38-.13s0-.15.17-.22-.22-.12-.55-.12A2.56,2.56,0,0,0,34.41,90c-.57-.12-.74.13-.8.32a3,3,0,0,1-.47.73c-.62.15-.34.54-.34.67S32.51,91.82,32.49,92.07Z"/><polygon class="a" points="43.93 97.02 38.42 97.02 39.33 97.71 43.93 97.71 43.93 97.02"/><path class="a" d="M37.39,99.13a.92.92,0,0,0,.33.11l.08,0a13.67,13.67,0,0,0,1.58-1.13,2.5,2.5,0,0,0-1-.47,2,2,0,0,0-.41.16,5.9,5.9,0,0,1-2,.58,1.42,1.42,0,0,1-.58-.12,1.74,1.74,0,0,0-.68.58.48.48,0,0,0-.12.24h0a16.36,16.36,0,0,1,1.94.44c.24-.12.38-.28.38-.33l0-.16h.16A1.11,1.11,0,0,1,37.39,99.13Z"/><path class="a" d="M37.73,100.09C39,99.51,39,98.92,39,98.7a6.84,6.84,0,0,1-1,.85c-.33.21-.42,0-.62,0s-.27.32-.62.39a9.84,9.84,0,0,1-1.86-.47c-.52,0-1.66,1.62-1.88,2.06a6,6,0,0,0,0,2c0,.5.14,2.88.16,3.22-.49.18-.66.46-.91.55s-.55.1-.57.23.43.27.7.3.57-.2.72-.23a2.52,2.52,0,0,1,.75,0c.38.06.15-.72.13-.87s0-1.51,0-1.82.49-1.42.56-2.06a1.27,1.27,0,0,0-.37-1.16,1.41,1.41,0,0,1-.74.2C33.47,101.52,36.44,100.67,37.73,100.09Z"/><path class="a" d="M32,97.69l2.86.18a.81.81,0,0,1-.2-.36l-2.85-.07C31.69,97.48,32,97.69,32,97.69Z"/><path class="a" d="M29.4,97.44c-.19-.23-.56-.35-.29-.75-.28,0-.68-.13-.62.75h-.28a.7.7,0,0,0-.76-.5,9.79,9.79,0,0,0-2.27.67,18.07,18.07,0,0,0,2.28.5,1,1,0,0,0,.77-.46h.23a2.32,2.32,0,0,0,.21.5c0,.23,0,.55,0,.55a.39.39,0,0,0-.23.43c0,.33.21.32.27.32s.13-.1.36-.1a.47.47,0,0,0-.18-.61c0-.19,0-.4,0-.4s.24-.15.21-.28-.28-.13-.28-.32h.59S29.59,97.66,29.4,97.44Z"/><path class="a" d="M30.25,103.34v.32h1.91v-.34c.73-.33.27-2.25.11-2.82h0a.7.7,0,0,0,.26-.39h0v0s0-1.3,0-1.68-.72-.71-.75-.72h-.05l0,0a.77.77,0,0,1-.4.21.55.55,0,0,1-.41-.17v-.46H29.57l.08.47h.87a1.42,1.42,0,0,0-.61.66v0a13.34,13.34,0,0,0,0,1.55,1.22,1.22,0,0,0,.26.44C30.05,100.83,29.45,103.06,30.25,103.34Zm1.18-.21H31a.19.19,0,0,1,0-.38h.43a.19.19,0,0,1,0,.38Zm-1.37-3.19a12,12,0,0,1,0-1.5c0-.08.27-.59.7-.62a.68.68,0,0,0,.54.23.83.83,0,0,0,.46-.22c.21.09.62.31.62.56s0,1.55,0,1.68a.66.66,0,0,1-.17.28h-.38v-.73h-1.3v.71h-.26A.91.91,0,0,1,30.06,99.94Zm.25.53,1.81,0c.2.74.53,2.41,0,2.67l-.94-1-.86,1.08h0C29.73,103,30.1,101.22,30.31,100.47Z"/><path class="a" d="M31.73,99.4h.12v-.12a.12.12,0,0,0-.12-.12H30.67a.12.12,0,0,0-.12.12v.12h1.18Z"/><path class="a" d="M30.18,104.09h2a.12.12,0,0,0,.12-.13v-.13H30.05V104A.13.13,0,0,0,30.18,104.09Z"/></svg>